<?xml version="1.0" encoding="utf-8"?>
<!-- Generator: Adobe Illustrator 23.0.6, SVG Export Plug-In . SVG Version: 6.00 Build 0)  -->
<svg version="1.1" id="Capa_1" xmlns="http://www.w3.org/2000/svg" xmlns:xlink="http://www.w3.org/1999/xlink" x="0px" y="0px"
	 viewBox="0 0 512 512" style="enable-background:new 0 0 512 512;" xml:space="preserve">
<style type="text/css">
	.st0{fill:none;stroke:#000000;stroke-width:7;stroke-miterlimit:10;}
</style>
<g>
	<path class="st0" d="M256,18.5C124.8,18.5,18.5,124.8,18.5,256S124.8,493.5,256,493.5S493.5,387.2,493.5,256S387.2,18.5,256,18.5z"
		/>
	<g>
		<g>
			<path class="st0" d="M128.1,383.9h48v-192h-48V383.9z M320.1,191.9c-41.1,0.7-61.3,30.6-64,32v-32h-48v192h48v-112
				c0-4.1,10.1-37,48-32c20.3,1.3,31.3,28.2,32,32v112l47.8,0.2V251.2C382.2,232,372.6,192.6,320.1,191.9z M152.1,127.9
				c-13.2,0-24,10.7-24,24s10.8,24,24,24s24-10.7,24-24S165.3,127.9,152.1,127.9z"/>
		</g>
	</g>
</g>
</svg>
