<?xml version="1.0" encoding="utf-8"?>
<!-- Generator: Adobe Illustrator 23.0.6, SVG Export Plug-In . SVG Version: 6.00 Build 0)  -->
<svg version="1.1" id="Capa_1" xmlns="http://www.w3.org/2000/svg" xmlns:xlink="http://www.w3.org/1999/xlink" x="0px" y="0px"
	 viewBox="0 0 615 615" style="enable-background:new 0 0 615 615;" xml:space="preserve">
<style type="text/css">
	.st0{fill:none;stroke:#000000;stroke-width:7;stroke-miterlimit:10;}
</style>
<title>twitter-circular-button</title>
<path class="st0" d="M438.7,246.7c0-3.1-0.1-6.1-0.2-9.2c13.3-10,24.8-22.3,33.8-36.3c-12.3,5.5-25.4,9.1-38.8,10.6
	c14.3-8.9,24.9-22.7,29.7-38.8c-13.2,8-27.7,13.6-42.9,16.6c-12.4-14.4-30.4-22.8-49.4-23.3c-37.3-0.6-67.6,30.9-67.6,70.5
	c0,5.5,0.6,11,1.8,16.3c-56.2-3.6-106-32.9-139.4-77c-6.1,11.1-9.2,23.5-9.2,36.2c0,25,11.9,47.3,30.1,60.4
	c-10.8-0.5-21.4-3.7-30.6-9.4v0.9c0,35,23.3,64.3,54.2,71.2c-5.8,1.6-11.8,2.4-17.8,2.4c-4.3,0-8.5-0.5-12.7-1.4
	c8.6,28.7,33.6,49.6,63.2,50.3c-23.1,19.2-52.3,30.6-84,30.6c-5.4,0-10.8-0.3-16.1-1c30.4,21.1,66.6,32.4,103.6,32.5
	C370.7,448.8,438.7,340.5,438.7,246.7z"/>
<path class="st0" d="M29.3,307.5c0-153.6,124.5-278.2,278.2-278.2s278.2,124.5,278.2,278.2S461.1,585.7,307.5,585.7
	S29.3,461.1,29.3,307.5z"/>
</svg>
